<?xml version="1.0" standalone="no"?>
<!DOCTYPE svg PUBLIC "-//W3C//DTD SVG 20010904//EN"
 "http://www.w3.org/TR/2001/REC-SVG-20010904/DTD/svg10.dtd">
<svg version="1.0" xmlns="http://www.w3.org/2000/svg"
 width="180.000000pt" height="180.000000pt" viewBox="0 0 180.000000 180.000000"
 preserveAspectRatio="xMidYMid meet">

<g transform="translate(0.000000,180.000000) scale(0.100000,-0.100000)"
fill="#000000" stroke="none">
<path d="M486 1170 c-100 -30 -122 -164 -36 -214 31 -18 55 -21 200 -24 185
-4 216 -14 174 -56 -13 -13 -45 -16 -189 -16 l-173 0 -29 -37 c-17 -21 -33
-44 -37 -50 -6 -10 33 -13 181 -13 l188 0 78 103 c42 57 77 107 77 111 0 4
-16 14 -35 22 -25 10 -76 14 -184 14 -82 0 -156 3 -165 6 -22 8 -20 41 3 54
12 6 109 10 245 10 l224 0 29 38 c17 20 33 43 37 50 6 9 -52 12 -276 11 -156
0 -296 -5 -312 -9z"/>
<path d="M1093 1136 c-18 -25 -33 -48 -33 -51 0 -3 39 -5 88 -5 100 0 136 -13
140 -52 6 -48 -25 -58 -183 -58 l-140 0 -50 -67 c-27 -36 -63 -83 -78 -105
l-29 -38 86 0 85 0 3 53 3 52 160 5 c136 4 165 8 194 25 55 32 76 69 76 130 0
100 -63 147 -204 152 l-86 4 -32 -45z"/>
</g>
</svg>
