<svg id="Слой_1" data-name="Слой 1" xmlns="http://www.w3.org/2000/svg" width="75.12mm" height="7mm" viewBox="0 0 212.95 19.85"><title>logo</title><path d="M65,14.68v1.39h3.66a.54.54,0,0,0,.25-.06.46.46,0,0,0,.14-.17,1.3,1.3,0,0,0,.07-.48,1.2,1.2,0,0,0-.07-.46.36.36,0,0,0-.14-.16.39.39,0,0,0-.24-.06Zm-41.38,0v.94h4.95v1.59H23.62v1h4.95v1.59H21.89V13.11h6.68V14.7Zm-21.89,1h.38L6,13.11H8.86L3.93,16.48l5.14,3.36H6.15L2.1,17.14H1.73v2.7H0V13.11H1.73Zm42.74,2.56h3.66V14.69H45.86l-.15.16a6.55,6.55,0,0,0-1.22,3.22C44.48,18.12,44.48,18.18,44.47,18.23Zm5.26,0h.55v1.61H41.6V18.23h1.25A9.51,9.51,0,0,1,45,13.07h4.78ZM21.88,0H70.76V12H21.88l-9-6ZM11.26,0H0V4.89H3.93Zm-.39,6,9-6H16.79l-9,6,9,6h3.09Zm.39,6H0V7.14H3.93ZM65,17.67v2.17H63.26V13.07H68.7a2.46,2.46,0,0,1,1.13.25,1.88,1.88,0,0,1,.78.8,3.07,3.07,0,0,1,.26,1.27,2.69,2.69,0,0,1-.28,1.25,1.7,1.7,0,0,1-.8.79,2.41,2.41,0,0,1-1.12.24Z" fill="#fff"/><rect x="82.44" width="0.71" height="19.84" fill="#fff"/><path d="M98.6.87H95.68V6.09h-.86V.1h4.64v6H98.6Z" fill="#fff"/><path d="M105.07,1.94a2.07,2.07,0,0,1-.14.82,1.51,1.51,0,0,1-.42.59,1.75,1.75,0,0,1-.64.36,2.66,2.66,0,0,1-.82.12h-1.58V6.09h-.84V.1h2.48a2.47,2.47,0,0,1,.79.12,1.62,1.62,0,0,1,.62.34,1.65,1.65,0,0,1,.41.58A2,2,0,0,1,105.07,1.94ZM101.47.86V3.07h1.62a1.16,1.16,0,0,0,.83-.29,1.09,1.09,0,0,0,.29-.82,1,1,0,0,0-.32-.82,1.17,1.17,0,0,0-.82-.28Z" fill="#fff"/><path d="M108.14,6.18A2.38,2.38,0,0,1,107.06,6a2.13,2.13,0,0,1-.79-.64,2.79,2.79,0,0,1-.5-1,4.43,4.43,0,0,1-.16-1.24,4.4,4.4,0,0,1,.17-1.23,3.11,3.11,0,0,1,.49-1,2.32,2.32,0,0,1,.8-.65A2.52,2.52,0,0,1,108.15,0a2.38,2.38,0,0,1,1,.22,2.33,2.33,0,0,1,.8.63,2.94,2.94,0,0,1,.51,1,4.06,4.06,0,0,1,.18,1.25,4.19,4.19,0,0,1-.18,1.27,2.94,2.94,0,0,1-.51,1,2.3,2.3,0,0,1-.8.62A2.39,2.39,0,0,1,108.14,6.18Zm0-5.4a1.46,1.46,0,0,0-.73.18,1.48,1.48,0,0,0-.52.48,2.55,2.55,0,0,0-.31.73,3.8,3.8,0,0,0-.11.92,3.7,3.7,0,0,0,.11.9,2.62,2.62,0,0,0,.31.74,1.69,1.69,0,0,0,.53.5,1.46,1.46,0,0,0,.73.18,1.44,1.44,0,0,0,.73-.18,1.58,1.58,0,0,0,.52-.51,2.31,2.31,0,0,0,.32-.73,3.68,3.68,0,0,0,.1-.89,3.82,3.82,0,0,0-.1-.92,2.27,2.27,0,0,0-.32-.74,1.4,1.4,0,0,0-.52-.48A1.5,1.5,0,0,0,108.14.78Z" fill="#fff"/><path d="M117.32,3.05a2.87,2.87,0,0,1-.17,1,2.33,2.33,0,0,1-.49.8,2.51,2.51,0,0,1-.79.56,3.12,3.12,0,0,1-1,.26v.42H114V5.66a3.13,3.13,0,0,1-1-.27,2.59,2.59,0,0,1-.77-.56,2.25,2.25,0,0,1-.49-.78,2.64,2.64,0,0,1-.18-1,2.78,2.78,0,0,1,.17-1,2.61,2.61,0,0,1,.49-.8A2.42,2.42,0,0,1,113,.73a3.19,3.19,0,0,1,1-.27V.1h.84V.46a3.36,3.36,0,0,1,1.06.27,2.51,2.51,0,0,1,.78.56,2.36,2.36,0,0,1,.48.79A2.57,2.57,0,0,1,117.32,3.05ZM114,1.17a2,2,0,0,0-.69.22,1.94,1.94,0,0,0-.51.43,1.94,1.94,0,0,0-.3.57,2.08,2.08,0,0,0-.11.66,2.2,2.2,0,0,0,.1.68,1.86,1.86,0,0,0,.29.58,1.75,1.75,0,0,0,.5.43A2.44,2.44,0,0,0,114,5Zm2.48,1.89a2.52,2.52,0,0,0-.09-.67,1.71,1.71,0,0,0-.29-.57,2,2,0,0,0-.51-.44,2.28,2.28,0,0,0-.75-.23V5a2.22,2.22,0,0,0,.74-.23,1.69,1.69,0,0,0,.51-.44,1.89,1.89,0,0,0,.3-.58A2.54,2.54,0,0,0,116.47,3.06Z" fill="#fff"/><path d="M118.31.1h4V.87h-3.09V2.52h2.19v.77h-2.19v2h3.2v.77h-4.07Z" fill="#fff"/><path d="M122.94,3.08a4,4,0,0,1,.19-1.28,2.74,2.74,0,0,1,.52-1,2.41,2.41,0,0,1,.81-.61A2.44,2.44,0,0,1,125.51,0a2.6,2.6,0,0,1,1.12.22,2.41,2.41,0,0,1,.82.64l-.6.58a1.9,1.9,0,0,0-.63-.5,1.72,1.72,0,0,0-.72-.15,1.46,1.46,0,0,0-.71.17,1.61,1.61,0,0,0-.53.48,2.16,2.16,0,0,0-.32.72,3.43,3.43,0,0,0-.12.93,3.78,3.78,0,0,0,.11.91,2.37,2.37,0,0,0,.32.74,1.58,1.58,0,0,0,.54.49,1.44,1.44,0,0,0,.73.18,1.81,1.81,0,0,0,1.37-.68l.6.53a2.7,2.7,0,0,1-.83.68,2.8,2.8,0,0,1-2.2,0,2.28,2.28,0,0,1-.81-.61,2.7,2.7,0,0,1-.52-1A4,4,0,0,1,122.94,3.08Z" fill="#fff"/><path d="M128.14,3.08a4.26,4.26,0,0,1,.18-1.28,2.92,2.92,0,0,1,.53-1,2.41,2.41,0,0,1,.81-.61A2.44,2.44,0,0,1,130.71,0a2.53,2.53,0,0,1,1.11.22,2.44,2.44,0,0,1,.83.64l-.6.58a1.9,1.9,0,0,0-.63-.5,1.72,1.72,0,0,0-.72-.15A1.53,1.53,0,0,0,130,1a1.58,1.58,0,0,0-.52.48,2.39,2.39,0,0,0-.33.72,3.89,3.89,0,0,0-.11.93,3.78,3.78,0,0,0,.11.91,2.37,2.37,0,0,0,.32.74,1.65,1.65,0,0,0,.53.49,1.5,1.5,0,0,0,.74.18,1.81,1.81,0,0,0,1.37-.68l.6.53a2.7,2.7,0,0,1-.83.68,2.8,2.8,0,0,1-2.2,0,2.28,2.28,0,0,1-.81-.61,2.88,2.88,0,0,1-.53-1A4.3,4.3,0,0,1,128.14,3.08Z" fill="#fff"/><path d="M137.47,6.09V1.47h0l-1.11,1.69-2,2.93h-.85V.1h.85V4.73h0l1.05-1.58,2-3h.85v6Z" fill="#fff"/><path d="M141.86,6.18A2.38,2.38,0,0,1,140.78,6a2.25,2.25,0,0,1-.8-.64,3,3,0,0,1-.49-1,4.43,4.43,0,0,1-.16-1.24,4.07,4.07,0,0,1,.17-1.23,2.91,2.91,0,0,1,.49-1,2.32,2.32,0,0,1,.8-.65A2.52,2.52,0,0,1,141.87,0a2.38,2.38,0,0,1,1,.22,2.33,2.33,0,0,1,.8.63,2.94,2.94,0,0,1,.51,1,4.06,4.06,0,0,1,.18,1.25,4.19,4.19,0,0,1-.18,1.27,2.94,2.94,0,0,1-.51,1,2.3,2.3,0,0,1-.8.62A2.42,2.42,0,0,1,141.86,6.18Zm0-5.4a1.46,1.46,0,0,0-.73.18,1.4,1.4,0,0,0-.52.48,2.3,2.3,0,0,0-.31.73,3.8,3.8,0,0,0-.11.92,3.7,3.7,0,0,0,.11.9,2.36,2.36,0,0,0,.31.74,1.69,1.69,0,0,0,.53.5,1.57,1.57,0,0,0,1.46,0,1.58,1.58,0,0,0,.52-.51,2.56,2.56,0,0,0,.32-.73,3.68,3.68,0,0,0,.1-.89,3.82,3.82,0,0,0-.1-.92,2.51,2.51,0,0,0-.32-.74A1.4,1.4,0,0,0,142.6,1,1.5,1.5,0,0,0,141.86.78Z" fill="#fff"/><path d="M149.21,3.36h-2.93V6.09h-.86V.1h.86V2.58h2.93V.1h.86v6h-.86Z" fill="#fff"/><path d="M152.21,4.72l-.26.69-.26.68h-.89l2.34-6h.94c.38,1,.77,2,1.15,3l1.18,3h-.91c-.08-.23-.17-.45-.26-.68L155,4.72ZM154.72,4c-.18-.5-.37-1-.56-1.46s-.38-1-.55-1.53h0l-1.11,3Z" fill="#fff"/><path d="M158.54.86V3.59c0,.29,0,.59,0,.9a2.4,2.4,0,0,1-.17.83,1.35,1.35,0,0,1-.5.61,1.8,1.8,0,0,1-1,.23l-.07-.72a2.14,2.14,0,0,0,.5-.15.7.7,0,0,0,.28-.26,1.16,1.16,0,0,0,.12-.42,5.72,5.72,0,0,0,0-.64V.11h3.78v6h-.86V.86Z" fill="#fff"/><path d="M162.65.11h.86V2.54h1.63a2.06,2.06,0,0,1,1.44.46,1.68,1.68,0,0,1,.52,1.33,1.86,1.86,0,0,1-.14.77,1.55,1.55,0,0,1-.38.55A1.57,1.57,0,0,1,166,6a2.74,2.74,0,0,1-.79.11h-2.53Zm.86,3.2v2h1.6a1.49,1.49,0,0,0,.43-.06,1,1,0,0,0,.37-.17.83.83,0,0,0,.24-.31,1.13,1.13,0,0,0,.09-.47.91.91,0,0,0-.32-.75,1.31,1.31,0,0,0-.82-.25Z" fill="#fff"/><path d="M171.8,3.36h-2.92V6.09H168V.1h.87V2.58h2.92V.1h.87v6h-.87Z" fill="#fff"/><path d="M176.2,6.18A2.32,2.32,0,0,1,175.12,6a2.16,2.16,0,0,1-.8-.64,2.77,2.77,0,0,1-.49-1,4.42,4.42,0,0,1-.17-1.24,4.4,4.4,0,0,1,.17-1.23,3.11,3.11,0,0,1,.49-1,2.41,2.41,0,0,1,.8-.65A2.53,2.53,0,0,1,176.21,0a2.36,2.36,0,0,1,1,.22,2.33,2.33,0,0,1,.8.63,2.94,2.94,0,0,1,.51,1,4.06,4.06,0,0,1,.18,1.25,4.19,4.19,0,0,1-.18,1.27,2.94,2.94,0,0,1-.51,1,2.3,2.3,0,0,1-.8.62A2.38,2.38,0,0,1,176.2,6.18Zm0-5.4a1.44,1.44,0,0,0-.73.18,1.33,1.33,0,0,0-.52.48,2.31,2.31,0,0,0-.32.73,3.82,3.82,0,0,0-.1.92,3.71,3.71,0,0,0,.1.9,2.37,2.37,0,0,0,.32.74,1.55,1.55,0,0,0,.52.5,1.47,1.47,0,0,0,.74.18,1.4,1.4,0,0,0,.72-.18,1.61,1.61,0,0,0,.53-.51,2.55,2.55,0,0,0,.31-.73,3.68,3.68,0,0,0,.11-.89,3.8,3.8,0,0,0-.11-.92,2.5,2.5,0,0,0-.31-.74,1.43,1.43,0,0,0-.53-.48A1.46,1.46,0,0,0,176.2.78Z" fill="#fff"/><path d="M179.76.1h4V.87h-3.09V2.52h2.19v.77h-2.19v2h3.2v.77h-4.07Z" fill="#fff"/><path d="M94.64,15.41a4,4,0,0,1,.19-1.28,2.74,2.74,0,0,1,.52-1,2.41,2.41,0,0,1,.81-.61,2.44,2.44,0,0,1,1-.22,2.6,2.6,0,0,1,1.12.22,2.41,2.41,0,0,1,.82.64l-.6.58a1.9,1.9,0,0,0-.63-.5,1.72,1.72,0,0,0-.72-.15,1.46,1.46,0,0,0-.71.17,1.61,1.61,0,0,0-.53.48,2.16,2.16,0,0,0-.32.72,3.43,3.43,0,0,0-.12.93,3.78,3.78,0,0,0,.11.91,2.37,2.37,0,0,0,.32.74,1.58,1.58,0,0,0,.54.49,1.44,1.44,0,0,0,.73.18,1.81,1.81,0,0,0,1.37-.68l.6.53a2.7,2.7,0,0,1-.83.68,2.8,2.8,0,0,1-2.2,0,2.28,2.28,0,0,1-.81-.61,2.7,2.7,0,0,1-.52-1A4,4,0,0,1,94.64,15.41Z" fill="#fff"/><path d="M103.45,15.19a1.39,1.39,0,0,1,.77.5,1.44,1.44,0,0,1,.31.94A1.66,1.66,0,0,1,104,18a2.15,2.15,0,0,1-1.48.46H100v-6h2.53a1.91,1.91,0,0,1,1.25.39,1.33,1.33,0,0,1,.48,1.1,1.29,1.29,0,0,1-.23.76,1.24,1.24,0,0,1-.61.48Zm-2.59-2v1.68h1.62a1,1,0,0,0,.7-.25.83.83,0,0,0,.25-.61.81.81,0,0,0-.23-.6.94.94,0,0,0-.68-.22Zm0,2.41v2h1.64a1.24,1.24,0,0,0,.88-.27,1,1,0,0,0,.29-.76.89.89,0,0,0-.34-.76,1.27,1.27,0,0,0-.83-.26Z" fill="#fff"/><path d="M106.53,17.05l-.26.69c-.08.23-.17.45-.26.68h-.89l2.34-6h.94c.38,1,.77,2,1.16,3s.77,2,1.17,3h-.91c-.08-.23-.17-.45-.26-.68l-.25-.69Zm2.51-.73c-.18-.5-.37-1-.56-1.46s-.38-1-.55-1.53h0l-1.11,3Z" fill="#fff"/><path d="M115.85,14.27a2.07,2.07,0,0,1-.15.82,1.51,1.51,0,0,1-.42.59,1.75,1.75,0,0,1-.64.36,2.66,2.66,0,0,1-.82.12h-1.58v2.26h-.84v-6h2.48a2.47,2.47,0,0,1,.79.12,1.62,1.62,0,0,1,.62.34,1.53,1.53,0,0,1,.41.58A2,2,0,0,1,115.85,14.27Zm-3.61-1.08V15.4h1.62a1.15,1.15,0,0,0,.83-.29,1.05,1.05,0,0,0,.29-.82,1,1,0,0,0-.31-.82,1.21,1.21,0,0,0-.83-.28Z" fill="#fff"/><path d="M118.92,18.51a2.32,2.32,0,0,1-1.08-.23,2.16,2.16,0,0,1-.8-.64,2.77,2.77,0,0,1-.49-1,4.57,4.57,0,0,1,0-2.47,3.33,3.33,0,0,1,.49-1,2.41,2.41,0,0,1,.8-.65,2.53,2.53,0,0,1,1.09-.23,2.36,2.36,0,0,1,1,.22,2.24,2.24,0,0,1,.8.63,2.94,2.94,0,0,1,.51,1,4.06,4.06,0,0,1,.18,1.25,4.19,4.19,0,0,1-.18,1.27,2.94,2.94,0,0,1-.51,1,2.22,2.22,0,0,1-.8.62A2.38,2.38,0,0,1,118.92,18.51Zm0-5.4a1.44,1.44,0,0,0-.73.18,1.4,1.4,0,0,0-.52.48,2.31,2.31,0,0,0-.32.73,3.82,3.82,0,0,0-.1.92,3.71,3.71,0,0,0,.1.9,2.37,2.37,0,0,0,.32.74,1.65,1.65,0,0,0,.52.5,1.47,1.47,0,0,0,.74.18,1.4,1.4,0,0,0,.72-.18,1.61,1.61,0,0,0,.53-.51,2.55,2.55,0,0,0,.31-.73,3.68,3.68,0,0,0,.11-.89,3.8,3.8,0,0,0-.11-.92,2.5,2.5,0,0,0-.31-.74,1.43,1.43,0,0,0-.53-.48A1.46,1.46,0,0,0,118.92,13.11Z" fill="#fff"/><path d="M125.93,18.42V16h0a1.64,1.64,0,0,1-.4.19,3.81,3.81,0,0,1-.45.13,2.36,2.36,0,0,1-.45.08l-.4,0a1.91,1.91,0,0,1-1.45-.52,2,2,0,0,1-.49-1.41V12.43h.83v1.91a1.43,1.43,0,0,0,.31,1,1.4,1.4,0,0,0,1,.31l.36,0a3.2,3.2,0,0,0,.42-.1,2.74,2.74,0,0,0,.4-.15,1.63,1.63,0,0,0,.34-.21V12.43h.85v6Z" fill="#fff"/><path d="M131.75,15.69h-2.93v2.73H128v-6h.86v2.49h2.93V12.43h.86v6h-.86Z" fill="#fff"/><path d="M136.14,18.51a2.38,2.38,0,0,1-1.08-.23,2.25,2.25,0,0,1-.8-.64,2.77,2.77,0,0,1-.49-1,4.57,4.57,0,0,1,0-2.47,3.13,3.13,0,0,1,.5-1,2.38,2.38,0,0,1,.79-.65,2.53,2.53,0,0,1,1.09-.23,2.44,2.44,0,0,1,1,.22,2.3,2.3,0,0,1,.79.63,2.61,2.61,0,0,1,.51,1,4.06,4.06,0,0,1,.18,1.25,4.19,4.19,0,0,1-.18,1.27,2.61,2.61,0,0,1-.51,1,2.27,2.27,0,0,1-.79.62A2.45,2.45,0,0,1,136.14,18.51Zm0-5.4a1.44,1.44,0,0,0-.73.18,1.4,1.4,0,0,0-.52.48,2.3,2.3,0,0,0-.31.73,3.8,3.8,0,0,0-.11.92,3.7,3.7,0,0,0,.11.9,2.36,2.36,0,0,0,.31.74,1.59,1.59,0,0,0,.53.5,1.57,1.57,0,0,0,1.46,0,1.58,1.58,0,0,0,.52-.51,2.3,2.3,0,0,0,.31-.73,3.68,3.68,0,0,0,.11-.89,3.8,3.8,0,0,0-.11-.92,2.26,2.26,0,0,0-.31-.74,1.36,1.36,0,0,0-.53-.48A1.44,1.44,0,0,0,136.14,13.11Z" fill="#fff"/><path d="M139.7,12.43h4v.77h-3.09v1.65h2.19v.77h-2.19v2h3.2v.77H139.7Z" fill="#fff"/><path d="M149.06,18.51a2.32,2.32,0,0,1-1.08-.23,2.16,2.16,0,0,1-.8-.64,2.77,2.77,0,0,1-.49-1,4.57,4.57,0,0,1,0-2.47,3.33,3.33,0,0,1,.49-1,2.41,2.41,0,0,1,.8-.65,2.53,2.53,0,0,1,1.09-.23,2.36,2.36,0,0,1,1,.22,2.24,2.24,0,0,1,.8.63,2.94,2.94,0,0,1,.51,1,4.06,4.06,0,0,1,.18,1.25,4.19,4.19,0,0,1-.18,1.27,2.94,2.94,0,0,1-.51,1,2.22,2.22,0,0,1-.8.62A2.38,2.38,0,0,1,149.06,18.51Zm0-5.4a1.44,1.44,0,0,0-.73.18,1.33,1.33,0,0,0-.52.48,2.31,2.31,0,0,0-.32.73,3.82,3.82,0,0,0-.1.92,3.71,3.71,0,0,0,.1.9,2.37,2.37,0,0,0,.32.74,1.55,1.55,0,0,0,.52.5,1.47,1.47,0,0,0,.74.18,1.4,1.4,0,0,0,.72-.18,1.61,1.61,0,0,0,.53-.51,2.55,2.55,0,0,0,.31-.73,3.68,3.68,0,0,0,.11-.89,3.8,3.8,0,0,0-.11-.92,2.5,2.5,0,0,0-.31-.74,1.43,1.43,0,0,0-.53-.48A1.46,1.46,0,0,0,149.06,13.11Z" fill="#fff"/><path d="M157.13,16.65A1.69,1.69,0,0,1,156.6,18a2.12,2.12,0,0,1-1.47.46h-2.49v-6h3.92v.77h-3.09v1.66h1.64a2.24,2.24,0,0,1,1.48.45A1.62,1.62,0,0,1,157.13,16.65Zm-.85,0a.93.93,0,0,0-.3-.75,1.2,1.2,0,0,0-.83-.27h-1.68v2h1.67a1.26,1.26,0,0,0,.84-.26A1,1,0,0,0,156.28,16.63Z" fill="#fff"/><path d="M160.47,18.51a2.38,2.38,0,0,1-1.08-.23,2.13,2.13,0,0,1-.79-.64,2.79,2.79,0,0,1-.5-1,4.7,4.7,0,0,1,0-2.47,3.11,3.11,0,0,1,.49-1,2.32,2.32,0,0,1,.8-.65,2.52,2.52,0,0,1,1.08-.23,2.38,2.38,0,0,1,1.05.22,2.33,2.33,0,0,1,.8.63,2.94,2.94,0,0,1,.51,1,4.06,4.06,0,0,1,.18,1.25,4.19,4.19,0,0,1-.18,1.27,2.94,2.94,0,0,1-.51,1,2.3,2.3,0,0,1-.8.62A2.39,2.39,0,0,1,160.47,18.51Zm0-5.4a1.46,1.46,0,0,0-.73.18,1.48,1.48,0,0,0-.52.48,2.55,2.55,0,0,0-.31.73,3.8,3.8,0,0,0-.11.92,3.7,3.7,0,0,0,.11.9,2.62,2.62,0,0,0,.31.74,1.69,1.69,0,0,0,.53.5,1.46,1.46,0,0,0,.73.18,1.44,1.44,0,0,0,.73-.18,1.58,1.58,0,0,0,.52-.51,2.31,2.31,0,0,0,.32-.73,3.68,3.68,0,0,0,.1-.89,3.82,3.82,0,0,0-.1-.92,2.27,2.27,0,0,0-.32-.74,1.4,1.4,0,0,0-.52-.48A1.5,1.5,0,0,0,160.47,13.11Z" fill="#fff"/><path d="M168.48,14.27a2.27,2.27,0,0,1-.14.82,1.51,1.51,0,0,1-.42.59,1.79,1.79,0,0,1-.65.36,2.62,2.62,0,0,1-.82.12h-1.57v2.26H164v-6h2.48a2.47,2.47,0,0,1,.79.12,1.7,1.7,0,0,1,.62.34,1.65,1.65,0,0,1,.41.58A2.16,2.16,0,0,1,168.48,14.27Zm-3.6-1.08V15.4h1.61a1.13,1.13,0,0,0,.83-.29,1.06,1.06,0,0,0,.3-.82,1,1,0,0,0-.32-.82,1.18,1.18,0,0,0-.82-.28Z" fill="#fff"/><path d="M171.14,16.19c.11-.21.21-.47.33-.77s.23-.6.35-.89.32-.8.48-1.17.27-.68.37-.91h.87l-2.08,4.86a2.18,2.18,0,0,1-.66.93,1.4,1.4,0,0,1-.81.27h-.43V17.8h.25a1.07,1.07,0,0,0,.41-.08.71.71,0,0,0,.31-.36l.14-.29-2-4.62h.89l.87,2.13c.11.26.21.53.32.81s.22.55.33.8Z" fill="#fff"/><path d="M179,19.85h-.87V18.42h-4.23v1.43H173v-2.2h.49a2.06,2.06,0,0,0,.42-.55,2.91,2.91,0,0,0,.26-.72,6.69,6.69,0,0,0,.13-.87c0-.32,0-.66.05-1l.06-2h3.95v5.24h.59Zm-1.44-6.66h-2.3l-.06,1.32c0,.28,0,.57,0,.87a8.08,8.08,0,0,1-.08.86,5.62,5.62,0,0,1-.17.78,1.86,1.86,0,0,1-.31.63h3Z" fill="#fff"/><path d="M182.12,18.51a2.38,2.38,0,0,1-1.08-.23,2.25,2.25,0,0,1-.8-.64,3,3,0,0,1-.49-1,4.43,4.43,0,0,1-.16-1.24,4.07,4.07,0,0,1,.17-1.23,2.91,2.91,0,0,1,.49-1,2.32,2.32,0,0,1,.8-.65,2.48,2.48,0,0,1,1.08-.23,2.41,2.41,0,0,1,1.05.22,2.33,2.33,0,0,1,.8.63,2.94,2.94,0,0,1,.51,1,4.39,4.39,0,0,1,.17,1.25,4.54,4.54,0,0,1-.17,1.27,2.94,2.94,0,0,1-.51,1,2.3,2.3,0,0,1-.8.62A2.45,2.45,0,0,1,182.12,18.51Zm0-5.4a1.44,1.44,0,0,0-.73.18,1.4,1.4,0,0,0-.52.48,2.3,2.3,0,0,0-.31.73,3.8,3.8,0,0,0-.11.92,3.7,3.7,0,0,0,.11.9,2.36,2.36,0,0,0,.31.74,1.69,1.69,0,0,0,.53.5,1.57,1.57,0,0,0,1.46,0,1.58,1.58,0,0,0,.52-.51,2.3,2.3,0,0,0,.31-.73,3.68,3.68,0,0,0,.11-.89,3.8,3.8,0,0,0-.11-.92,2.26,2.26,0,0,0-.31-.74,1.36,1.36,0,0,0-.53-.48A1.44,1.44,0,0,0,182.12,13.11Z" fill="#fff"/><path d="M189.12,15.19a1.39,1.39,0,0,1,.77.5,1.44,1.44,0,0,1,.31.94,1.66,1.66,0,0,1-.53,1.33,2.15,2.15,0,0,1-1.48.46H185.7v-6h2.53a1.91,1.91,0,0,1,1.25.39,1.33,1.33,0,0,1,.48,1.1,1.29,1.29,0,0,1-.23.76,1.24,1.24,0,0,1-.61.48Zm-2.59-2v1.68h1.62a.94.94,0,0,0,.7-.25.79.79,0,0,0,.25-.61.81.81,0,0,0-.23-.6.93.93,0,0,0-.68-.22Zm0,2.41v2h1.65a1.23,1.23,0,0,0,.87-.27,1,1,0,0,0,.29-.76.89.89,0,0,0-.34-.76,1.27,1.27,0,0,0-.83-.26Z" fill="#fff"/><path d="M192.2,17.05l-.26.69c-.08.23-.17.45-.25.68h-.9l2.34-6h.94c.38,1,.77,2,1.16,3s.78,2,1.17,3h-.91c-.08-.23-.17-.45-.25-.68s-.18-.46-.26-.69Zm2.51-.73c-.18-.5-.37-1-.56-1.46s-.37-1-.55-1.53h0l-1.11,3Z" fill="#fff"/><path d="M200.86,15.69h-2.93v2.73h-.86v-6h.86v2.49h2.93V12.43h.86v6h-.86Z" fill="#fff"/><path d="M206.85,18.42V13.8h0l-1.12,1.69-2,2.93h-.85v-6h.85v4.63h0l1.05-1.58,2-3.05h.84v6Z" fill="#fff"/><path d="M208.88,12.43h4v.77h-3.1v1.65h2.19v.77h-2.19v2H213v.77h-4.07Z" fill="#fff"/></svg>